<svg xmlns="http://www.w3.org/2000/svg" xmlns:xlink="http://www.w3.org/1999/xlink" viewBox="0 0 1068.91 874.22"><defs><style>.cls-1,.cls-3,.cls-4,.cls-5,.cls-6,.cls-7,.cls-8{fill:none;}.cls-2{fill:#fff;}.cls-3,.cls-4,.cls-6{stroke:#000;}.cls-3,.cls-4,.cls-5,.cls-6,.cls-7,.cls-8{stroke-miterlimit:10;}.cls-3,.cls-7{stroke-width:2.83px;}.cls-4{stroke-width:11.34px;}.cls-5,.cls-7{stroke:#fff;}.cls-5{stroke-width:5.67px;}.cls-6,.cls-7{stroke-linecap:round;}.cls-6{stroke-width:18.41px;}.cls-8{stroke:red;}.cls-9{fill:url(#New_Pattern_2);}.cls-10{font-size:12px;font-family:MyriadPro-Bold, Myriad Pro;font-weight:700;}.cls-11{letter-spacing:0.01em;}.cls-12{letter-spacing:-0.02em;}.cls-13{letter-spacing:-0.01em;}.cls-14{letter-spacing:0em;}.cls-15{letter-spacing:-0.01em;}.cls-16{fill:url(#New_Pattern_3);}.cls-17{letter-spacing:0em;}.cls-18{letter-spacing:-0.01em;}.cls-19{letter-spacing:0em;}.cls-20{fill:url(#New_Pattern_4);}.cls-21{letter-spacing:0em;}.cls-22{letter-spacing:0em;}.cls-23{letter-spacing:0em;}.cls-24{fill:url(#New_Pattern_6);}.cls-25{letter-spacing:-0.02em;}.cls-26{fill:url(#New_Pattern_7);}.cls-27{fill:url(#New_Pattern_8);}.cls-28{font-size:18px;font-family:MyriadPro-Regular, Myriad Pro;}.cls-29{letter-spacing:0.02em;}.cls-30{letter-spacing:0.01em;}.cls-31{letter-spacing:0.01em;}.cls-32{letter-spacing:-0.01em;}.cls-33{letter-spacing:0em;}.cls-34{letter-spacing:0em;}.cls-35{letter-spacing:-0.01em;}.cls-36{letter-spacing:-0.01em;}.cls-37{letter-spacing:-0.01em;}</style><pattern id="New_Pattern_2" data-name="New Pattern 2" width="85.04" height="85.04" patternTransform="translate(0.5 56.3)" patternUnits="userSpaceOnUse" viewBox="0 0 85.04 85.04"><rect class="cls-1" width="85.04" height="85.04"/><circle class="cls-2" cx="85.04" cy="-21.26" r="41.86"/><path d="M127.56-21.26A42.5,42.5,0,0,0,85-63.78,42.5,42.5,0,0,0,42.52-21.26,42.5,42.5,0,0,0,85,21.26,42.5,42.5,0,0,0,127.56-21.26ZM85,14.17A35.4,35.4,0,0,1,49.61-21.26,35.41,35.41,0,0,1,85-56.69a35.41,35.41,0,0,1,35.43,35.43A35.41,35.41,0,0,1,85,14.17Zm28.35-35.43A28.33,28.33,0,0,0,85-49.61,28.33,28.33,0,0,0,56.69-21.26,28.33,28.33,0,0,0,85,7.09,28.33,28.33,0,0,0,113.39-21.26ZM85,0A21.25,21.25,0,0,1,63.78-21.26,21.25,21.25,0,0,1,85-42.52,21.25,21.25,0,0,1,106.3-21.26,21.25,21.25,0,0,1,85,0ZM99.21-21.26A14.16,14.16,0,0,0,85-35.43,14.16,14.16,0,0,0,70.87-21.26,14.16,14.16,0,0,0,85-7.09,14.16,14.16,0,0,0,99.21-21.26ZM85-14.17A7.08,7.08,0,0,1,78-21.26,7.08,7.08,0,0,1,85-28.35a7.08,7.08,0,0,1,7.09,7.09A7.08,7.08,0,0,1,85-14.17Z"/><circle class="cls-2" cy="-21.26" r="41.86"/><path d="M42.52-21.26A42.5,42.5,0,0,0,0-63.78,42.5,42.5,0,0,0-42.52-21.26,42.5,42.5,0,0,0,0,21.26,42.5,42.5,0,0,0,42.52-21.26ZM0,14.17A35.4,35.4,0,0,1-35.43-21.26,35.41,35.41,0,0,1,0-56.69,35.41,35.41,0,0,1,35.43-21.26,35.41,35.41,0,0,1,0,14.17ZM28.35-21.26A28.33,28.33,0,0,0,0-49.61,28.33,28.33,0,0,0-28.35-21.26,28.33,28.33,0,0,0,0,7.09,28.33,28.33,0,0,0,28.35-21.26ZM0,0A21.25,21.25,0,0,1-21.26-21.26,21.25,21.25,0,0,1,0-42.52,21.25,21.25,0,0,1,21.26-21.26,21.25,21.25,0,0,1,0,0ZM14.17-21.26A14.16,14.16,0,0,0,0-35.43,14.16,14.16,0,0,0-14.17-21.26,14.16,14.16,0,0,0,0-7.09,14.16,14.16,0,0,0,14.17-21.26ZM0-14.17a7.08,7.08,0,0,1-7.09-7.09A7.08,7.08,0,0,1,0-28.35a7.08,7.08,0,0,1,7.09,7.09A7.08,7.08,0,0,1,0-14.17Z"/><circle class="cls-2" cx="42.52" r="41.86"/><path d="M85,0A42.5,42.5,0,0,0,42.52-42.52,42.5,42.5,0,0,0,0,0,42.52,42.52,0,0,0,85,0ZM42.52,35.43A35.4,35.4,0,0,1,7.09,0,35.41,35.41,0,0,1,42.52-35.43,35.41,35.41,0,0,1,78,0,35.41,35.41,0,0,1,42.52,35.43ZM70.87,0A28.33,28.33,0,0,0,42.52-28.35,28.33,28.33,0,0,0,14.17,0a28.35,28.35,0,0,0,56.7,0ZM42.52,21.26A21.25,21.25,0,0,1,21.26,0,21.25,21.25,0,0,1,42.52-21.26,21.25,21.25,0,0,1,63.78,0,21.25,21.25,0,0,1,42.52,21.26ZM56.69,0A14.16,14.16,0,0,0,42.52-14.17,14.16,14.16,0,0,0,28.35,0,14.17,14.17,0,1,0,56.69,0ZM42.52,7.09A7.08,7.08,0,0,1,35.43,0a7.08,7.08,0,0,1,7.09-7.09A7.08,7.08,0,0,1,49.61,0,7.08,7.08,0,0,1,42.52,7.09Z"/><circle class="cls-2" cx="85.04" cy="21.26" r="41.86"/><path d="M127.56,21.26A42.52,42.52,0,1,0,85,63.78,42.5,42.5,0,0,0,127.56,21.26ZM85,56.69a35.43,35.43,0,1,1,35.43-35.43A35.4,35.4,0,0,1,85,56.69Zm28.35-35.43A28.35,28.35,0,1,0,85,49.61,28.33,28.33,0,0,0,113.39,21.26ZM85,42.52A21.26,21.26,0,1,1,106.3,21.26,21.25,21.25,0,0,1,85,42.52ZM99.21,21.26A14.17,14.17,0,1,0,85,35.43,14.16,14.16,0,0,0,99.21,21.26ZM85,28.35a7.09,7.09,0,1,1,7.09-7.09A7.08,7.08,0,0,1,85,28.35Z"/><circle class="cls-2" cy="21.26" r="41.86"/><path d="M42.52,21.26A42.5,42.5,0,0,0,0-21.26,42.5,42.5,0,0,0-42.52,21.26,42.5,42.5,0,0,0,0,63.78,42.5,42.5,0,0,0,42.52,21.26ZM0,56.69A35.4,35.4,0,0,1-35.43,21.26,35.4,35.4,0,0,1,0-14.17,35.43,35.43,0,0,1,0,56.69ZM28.35,21.26A28.33,28.33,0,0,0,0-7.09,28.33,28.33,0,0,0-28.35,21.26,28.33,28.33,0,0,0,0,49.61,28.33,28.33,0,0,0,28.35,21.26ZM0,42.52A21.25,21.25,0,0,1-21.26,21.26,21.25,21.25,0,0,1,0,0,21.26,21.26,0,0,1,0,42.52ZM14.17,21.26A14.16,14.16,0,0,0,0,7.09,14.16,14.16,0,0,0-14.17,21.26,14.16,14.16,0,0,0,0,35.43,14.16,14.16,0,0,0,14.17,21.26ZM0,28.35a7.08,7.08,0,0,1-7.09-7.09A7.08,7.08,0,0,1,0,14.17,7.09,7.09,0,0,1,0,28.35Z"/><circle class="cls-2" cx="42.52" cy="42.52" r="41.86"/><path d="M85,42.52A42.52,42.52,0,1,0,42.52,85,42.5,42.5,0,0,0,85,42.52ZM42.52,78A35.43,35.43,0,1,1,78,42.52,35.41,35.41,0,0,1,42.52,78ZM70.87,42.52A28.35,28.35,0,1,0,42.52,70.87,28.33,28.33,0,0,0,70.87,42.52ZM42.52,63.78A21.26,21.26,0,1,1,63.78,42.52,21.25,21.25,0,0,1,42.52,63.78ZM56.69,42.52A14.17,14.17,0,1,0,42.52,56.69,14.16,14.16,0,0,0,56.69,42.52ZM42.52,49.61a7.09,7.09,0,1,1,7.09-7.09A7.08,7.08,0,0,1,42.52,49.61Z"/><circle class="cls-2" cx="85.04" cy="63.78" r="41.86"/><path d="M127.56,63.78A42.52,42.52,0,1,0,85,106.3,42.5,42.5,0,0,0,127.56,63.78ZM85,99.21a35.43,35.43,0,1,1,35.43-35.43A35.41,35.41,0,0,1,85,99.21Zm28.35-35.43A28.35,28.35,0,1,0,85,92.13,28.33,28.33,0,0,0,113.39,63.78ZM85,85A21.26,21.26,0,1,1,106.3,63.78,21.25,21.25,0,0,1,85,85ZM99.21,63.78A14.17,14.17,0,1,0,85,78,14.16,14.16,0,0,0,99.21,63.78ZM85,70.87a7.09,7.09,0,1,1,7.09-7.09A7.08,7.08,0,0,1,85,70.87Z"/><circle class="cls-2" cy="63.78" r="41.86"/><path d="M42.52,63.78A42.5,42.5,0,0,0,0,21.26,42.5,42.5,0,0,0-42.52,63.78,42.5,42.5,0,0,0,0,106.3,42.5,42.5,0,0,0,42.52,63.78ZM0,99.21A35.41,35.41,0,0,1-35.43,63.78,35.4,35.4,0,0,1,0,28.35,35.41,35.41,0,0,1,35.43,63.78,35.41,35.41,0,0,1,0,99.21ZM28.35,63.78A28.33,28.33,0,0,0,0,35.43,28.33,28.33,0,0,0-28.35,63.78,28.33,28.33,0,0,0,0,92.13,28.33,28.33,0,0,0,28.35,63.78ZM0,85A21.25,21.25,0,0,1-21.26,63.78,21.25,21.25,0,0,1,0,42.52,21.26,21.26,0,0,1,0,85ZM14.17,63.78A14.16,14.16,0,0,0,0,49.61,14.16,14.16,0,0,0-14.17,63.78,14.16,14.16,0,0,0,0,78,14.16,14.16,0,0,0,14.17,63.78ZM0,70.87a7.08,7.08,0,0,1-7.09-7.09A7.08,7.08,0,0,1,0,56.69,7.09,7.09,0,0,1,0,70.87Z"/><circle class="cls-2" cx="42.52" cy="85.04" r="41.86"/><path d="M85,85a42.52,42.52,0,1,0-42.52,42.52A42.5,42.5,0,0,0,85,85ZM42.52,120.47A35.43,35.43,0,1,1,78,85,35.41,35.41,0,0,1,42.52,120.47ZM70.87,85a28.35,28.35,0,1,0-28.35,28.35A28.33,28.33,0,0,0,70.87,85ZM42.52,106.3A21.26,21.26,0,1,1,63.78,85,21.25,21.25,0,0,1,42.52,106.3ZM56.69,85A14.17,14.17,0,1,0,42.52,99.21,14.16,14.16,0,0,0,56.69,85ZM42.52,92.13A7.09,7.09,0,1,1,49.61,85,7.08,7.08,0,0,1,42.52,92.13Z"/><circle class="cls-2" cx="85.04" cy="106.3" r="41.86"/><path d="M127.56,106.3A42.52,42.52,0,1,0,85,148.82,42.5,42.5,0,0,0,127.56,106.3ZM85,141.73a35.43,35.43,0,1,1,35.43-35.43A35.41,35.41,0,0,1,85,141.73Zm28.35-35.43A28.35,28.35,0,1,0,85,134.65,28.33,28.33,0,0,0,113.39,106.3ZM85,127.56A21.26,21.26,0,1,1,106.3,106.3,21.25,21.25,0,0,1,85,127.56ZM99.21,106.3A14.17,14.17,0,1,0,85,120.47,14.16,14.16,0,0,0,99.21,106.3ZM85,113.39a7.09,7.09,0,1,1,7.09-7.09A7.08,7.08,0,0,1,85,113.39Z"/><circle class="cls-2" cy="106.3" r="41.86"/><path d="M42.52,106.3A42.5,42.5,0,0,0,0,63.78,42.5,42.5,0,0,0-42.52,106.3,42.5,42.5,0,0,0,0,148.82,42.5,42.5,0,0,0,42.52,106.3ZM0,141.73A35.41,35.41,0,0,1-35.43,106.3,35.4,35.4,0,0,1,0,70.87,35.41,35.41,0,0,1,35.43,106.3,35.41,35.41,0,0,1,0,141.73ZM28.35,106.3A28.33,28.33,0,0,0,0,78,28.33,28.33,0,0,0-28.35,106.3,28.33,28.33,0,0,0,0,134.65,28.33,28.33,0,0,0,28.35,106.3ZM0,127.56A21.25,21.25,0,0,1-21.26,106.3,21.25,21.25,0,0,1,0,85a21.26,21.26,0,0,1,0,42.52ZM14.17,106.3A14.16,14.16,0,0,0,0,92.13,14.16,14.16,0,0,0-14.17,106.3,14.16,14.16,0,0,0,0,120.47,14.16,14.16,0,0,0,14.17,106.3ZM0,113.39a7.08,7.08,0,0,1-7.09-7.09A7.08,7.08,0,0,1,0,99.21a7.09,7.09,0,0,1,0,14.18Z"/></pattern><pattern id="New_Pattern_3" data-name="New Pattern 3" width="56.69" height="56.69" patternTransform="translate(14.67 56.3)" patternUnits="userSpaceOnUse" viewBox="0 0 56.69 56.69"><rect class="cls-1" width="56.69" height="56.69"/><rect x="42.52" y="42.52" width="28.35" height="28.35"/><rect x="-14.17" y="42.52" width="28.35" height="28.35"/><rect x="14.17" y="14.17" width="28.35" height="28.35"/><rect x="42.52" y="-14.17" width="28.35" height="28.35"/><rect x="-14.17" y="-14.17" width="28.35" height="28.35"/></pattern><pattern id="New_Pattern_4" data-name="New Pattern 4" width="56.69" height="56.69" patternTransform="translate(14.67 56.3)" patternUnits="userSpaceOnUse" viewBox="0 0 56.69 56.69"><rect class="cls-1" width="56.69" height="56.69"/><circle class="cls-3" cx="85.04" cy="85.04" r="28.35"/><circle class="cls-3" cx="28.35" cy="85.04" r="28.35"/><circle class="cls-3" cx="-28.35" cy="85.04" r="28.35"/><circle class="cls-3" cx="56.69" cy="56.69" r="28.35"/><circle class="cls-3" cy="56.69" r="28.35"/><circle class="cls-3" cx="85.04" cy="28.35" r="28.35"/><circle class="cls-3" cx="28.35" cy="28.35" r="28.35"/><circle class="cls-3" cx="-28.35" cy="28.35" r="28.35"/><circle class="cls-3" cx="56.69" r="28.35"/><circle class="cls-3" r="28.35"/><circle class="cls-3" cx="85.04" cy="-28.35" r="28.35"/><circle class="cls-3" cx="28.35" cy="-28.35" r="28.35"/><circle class="cls-3" cx="-28.35" cy="-28.35" r="28.35"/></pattern><pattern id="New_Pattern_6" data-name="New Pattern 6" width="85.04" height="49.1" patternTransform="translate(0.5 63.9)" patternUnits="userSpaceOnUse" viewBox="0 0 85.04 49.1"><rect class="cls-1" width="85.04" height="49.1"/><line class="cls-3" x1="56.69" y1="49.1" x2="113.39" y2="49.1"/><line class="cls-3" x1="70.87" y1="73.65" x2="99.21" y2="24.55"/><line class="cls-3" x1="99.21" y1="73.65" x2="70.87" y2="24.55"/><line class="cls-3" x1="60.49" y1="63.27" x2="109.59" y2="34.92"/><line class="cls-3" x1="85.04" y1="77.44" x2="85.04" y2="20.75"/><line class="cls-3" x1="109.59" y1="63.27" x2="60.49" y2="34.92"/><line class="cls-3" x1="28.35" y1="98.2" x2="56.69" y2="49.1"/><line class="cls-3" x1="56.69" y1="98.2" x2="28.35" y2="49.1"/><line class="cls-3" x1="42.52" y1="101.99" x2="42.52" y2="45.3"/><line class="cls-3" x1="-28.35" y1="49.1" x2="28.35" y2="49.1"/><line class="cls-3" x1="-14.17" y1="73.65" x2="14.17" y2="24.55"/><line class="cls-3" x1="14.17" y1="73.65" x2="-14.17" y2="24.55"/><line class="cls-3" x1="-24.55" y1="63.27" x2="24.55" y2="34.92"/><line class="cls-3" y1="77.44" y2="20.75"/><line class="cls-3" x1="24.55" y1="63.27" x2="-24.55" y2="34.92"/><line class="cls-3" x1="56.69" x2="113.39"/><line class="cls-3" x1="70.87" y1="24.55" x2="99.21" y2="-24.55"/><line class="cls-3" x1="99.21" y1="24.55" x2="70.87" y2="-24.55"/><line class="cls-3" x1="60.49" y1="14.17" x2="109.59" y2="-14.17"/><line class="cls-3" x1="85.04" y1="28.35" x2="85.04" y2="-28.35"/><line class="cls-3" x1="109.59" y1="14.17" x2="60.49" y2="-14.17"/><line class="cls-3" x1="14.17" y1="24.55" x2="70.87" y2="24.55"/><line class="cls-3" x1="28.35" y1="49.1" x2="56.69"/><line class="cls-3" x1="56.69" y1="49.1" x2="28.35"/><line class="cls-3" x1="17.97" y1="38.72" x2="67.07" y2="10.38"/><line class="cls-3" x1="42.52" y1="52.9" x2="42.52" y2="-3.8"/><line class="cls-3" x1="67.07" y1="38.72" x2="17.97" y2="10.38"/><line class="cls-3" x1="-28.35" x2="28.35"/><line class="cls-3" x1="-14.17" y1="24.55" x2="14.17" y2="-24.55"/><line class="cls-3" x1="14.17" y1="24.55" x2="-14.17" y2="-24.55"/><line class="cls-3" x1="-24.55" y1="14.17" x2="24.55" y2="-14.17"/><line class="cls-3" y1="28.35" y2="-28.35"/><line class="cls-3" x1="24.55" y1="14.17" x2="-24.55" y2="-14.17"/><line class="cls-3" x1="28.35" x2="56.69" y2="-49.1"/><line class="cls-3" x1="56.69" x2="28.35" y2="-49.1"/><line class="cls-3" x1="42.52" y1="3.8" x2="42.52" y2="-52.9"/></pattern><pattern id="New_Pattern_7" data-name="New Pattern 7" width="98.2" height="170.08" patternTransform="translate(5.57 118.21) scale(0.5)" patternUnits="userSpaceOnUse" viewBox="0 0 98.19 170.08"><rect class="cls-1" width="98.2" height="170.08"/><line class="cls-4" x1="135.02" y1="212.6" x2="85.92" y2="127.56"/><line class="cls-5" x1="135.02" y1="212.6" x2="85.92" y2="127.56"/><line class="cls-4" x1="110.47" y1="127.56" x2="61.37" y2="212.6"/><line class="cls-5" x1="110.47" y1="127.56" x2="61.37" y2="212.6"/><line class="cls-4" x1="36.82" y1="212.6" x2="-12.27" y2="127.56"/><line class="cls-5" x1="36.82" y1="212.6" x2="-12.27" y2="127.56"/><line class="cls-4" x1="12.27" y1="127.56" x2="-36.82" y2="212.6"/><line class="cls-5" x1="12.27" y1="127.56" x2="-36.82" y2="212.6"/><line class="cls-4" x1="85.92" y1="127.56" x2="36.82" y2="42.52"/><line class="cls-5" x1="85.92" y1="127.56" x2="36.82" y2="42.52"/><line class="cls-4" y1="106.3" x2="98.2" y2="106.3"/><line class="cls-5" y1="106.3" x2="98.2" y2="106.3"/><line class="cls-4" x1="61.37" y1="42.52" x2="12.27" y2="127.56"/><line class="cls-5" x1="61.37" y1="42.52" x2="12.27" y2="127.56"/><line class="cls-4" x1="135.02" y1="42.52" x2="85.92" y2="-42.52"/><line class="cls-5" x1="135.02" y1="42.52" x2="85.92" y2="-42.52"/><line class="cls-4" x1="49.1" y1="21.26" x2="147.29" y2="21.26"/><line class="cls-5" x1="49.1" y1="21.26" x2="147.29" y2="21.26"/><line class="cls-4" x1="110.47" y1="-42.52" x2="61.37" y2="42.52"/><line class="cls-5" x1="110.47" y1="-42.52" x2="61.37" y2="42.52"/><line class="cls-4" x1="36.82" y1="42.52" x2="-12.27" y2="-42.52"/><line class="cls-5" x1="36.82" y1="42.52" x2="-12.27" y2="-42.52"/><line class="cls-4" x1="-49.1" y1="21.26" x2="49.1" y2="21.26"/><line class="cls-5" x1="-49.1" y1="21.26" x2="49.1" y2="21.26"/><line class="cls-4" x1="12.27" y1="-42.52" x2="-36.82" y2="42.52"/><line class="cls-5" x1="12.27" y1="-42.52" x2="-36.82" y2="42.52"/></pattern><pattern id="New_Pattern_8" data-name="New Pattern 8" width="110.55" height="88.18" patternTransform="translate(14.67 113)" patternUnits="userSpaceOnUse" viewBox="0 0 110.55 88.18"><rect class="cls-1" width="110.55" height="88.18"/><polyline class="cls-6" points="120.57 66.38 110.55 73.9 100.53 66.38"/><line class="cls-6" x1="110.55" y1="58.87" x2="110.55" y2="73.9"/><polyline class="cls-6" points="81.49 80.67 91.51 88.18 81.49 95.7"/><line class="cls-6" x1="71.47" y1="88.18" x2="91.51" y2="88.18"/><line class="cls-7" x1="90.79" y1="88.18" x2="130.31" y2="88.18"/><line class="cls-7" x1="110.55" y1="103" x2="110.55" y2="73.36"/><path d="M115.28,88.18a4.73,4.73,0,1,0-4.73,4.73A4.73,4.73,0,0,0,115.28,88.18Z"/><path class="cls-2" d="M118.11,88.18a7.56,7.56,0,1,1-7.56-7.56A7.57,7.57,0,0,1,118.11,88.18Zm-7.56,4.73a4.73,4.73,0,1,0-4.73-4.73A4.73,4.73,0,0,0,110.55,92.91Z"/><polyline class="cls-6" points="10.02 66.38 0 73.9 -10.02 66.38"/><line class="cls-6" y1="58.87" y2="73.9"/><polyline class="cls-6" points="29.06 95.7 19.04 88.18 29.06 80.67"/><line class="cls-6" x1="39.09" y1="88.18" x2="19.04" y2="88.18"/><line class="cls-7" x1="-19.76" y1="88.18" x2="19.76" y2="88.18"/><line class="cls-7" y1="103" y2="73.36"/><path d="M4.73,88.18A4.73,4.73,0,0,0,0,83.46a4.73,4.73,0,0,0-4.73,4.72A4.73,4.73,0,0,0,0,92.91,4.73,4.73,0,0,0,4.73,88.18Z"/><path class="cls-2" d="M7.56,88.18A7.57,7.57,0,0,1,0,95.74,7.56,7.56,0,0,1,0,80.62,7.57,7.57,0,0,1,7.56,88.18ZM0,92.91a4.73,4.73,0,0,0,4.73-4.73A4.73,4.73,0,0,0,0,83.46a4.73,4.73,0,0,0-4.73,4.72A4.73,4.73,0,0,0,0,92.91Z"/><polyline class="cls-6" points="65.3 22.29 55.28 29.81 45.25 22.29"/><line class="cls-6" x1="55.28" y1="14.78" x2="55.28" y2="29.81"/><polyline class="cls-6" points="84.34 51.61 74.32 44.09 84.34 36.57"/><line class="cls-6" x1="94.36" y1="44.09" x2="74.32" y2="44.09"/><polyline class="cls-6" points="45.25 65.89 55.28 58.37 65.3 65.89"/><line class="cls-6" x1="55.28" y1="73.41" x2="55.28" y2="58.37"/><polyline class="cls-6" points="26.21 36.57 36.23 44.09 26.21 51.61"/><line class="cls-6" x1="16.19" y1="44.09" x2="36.23" y2="44.09"/><line class="cls-7" x1="35.52" y1="44.09" x2="75.03" y2="44.09"/><line class="cls-7" x1="55.28" y1="58.91" x2="55.28" y2="29.27"/><path d="M60,44.09a4.73,4.73,0,1,0-4.72,4.73A4.73,4.73,0,0,0,60,44.09Z"/><path class="cls-2" d="M62.84,44.09a7.57,7.57,0,1,1-7.56-7.56A7.57,7.57,0,0,1,62.84,44.09Zm-7.56,4.73a4.73,4.73,0,1,0-4.73-4.73A4.73,4.73,0,0,0,55.28,48.82Z"/><polyline class="cls-6" points="100.53 21.8 110.55 14.28 120.57 21.8"/><line class="cls-6" x1="110.55" y1="29.31" x2="110.55" y2="14.28"/><polyline class="cls-6" points="81.49 -7.52 91.51 0 81.49 7.52"/><line class="cls-6" x1="71.47" x2="91.51"/><line class="cls-7" x1="90.79" x2="130.31"/><line class="cls-7" x1="110.55" y1="14.82" x2="110.55" y2="-14.82"/><path d="M115.28,0a4.73,4.73,0,0,0-9.46,0,4.73,4.73,0,0,0,4.73,4.73A4.73,4.73,0,0,0,115.28,0Z"/><path class="cls-2" d="M118.11,0a7.57,7.57,0,0,1-7.56,7.56A7.57,7.57,0,0,1,103,0a7.56,7.56,0,0,1,15.12,0Zm-7.56,4.73A4.73,4.73,0,0,0,115.28,0a4.73,4.73,0,0,0-9.46,0A4.73,4.73,0,0,0,110.55,4.73Z"/><polyline class="cls-6" points="29.06 7.52 19.04 0 29.06 -7.52"/><line class="cls-6" x1="39.09" x2="19.04"/><polyline class="cls-6" points="-10.02 21.8 0 14.28 10.02 21.8"/><line class="cls-6" y1="29.31" y2="14.28"/><line class="cls-7" x1="-19.76" x2="19.76"/><line class="cls-7" y1="14.82" y2="-14.82"/><path d="M4.73,0A4.73,4.73,0,0,0,0-4.73,4.73,4.73,0,0,0-4.73,0,4.73,4.73,0,0,0,0,4.73,4.73,4.73,0,0,0,4.73,0Z"/><path class="cls-2" d="M7.56,0A7.57,7.57,0,0,1,0,7.56,7.57,7.57,0,0,1-7.56,0,7.57,7.57,0,0,1,0-7.56,7.57,7.57,0,0,1,7.56,0ZM0,4.73A4.73,4.73,0,0,0,4.73,0,4.73,4.73,0,0,0,0-4.73,4.73,4.73,0,0,0-4.73,0,4.73,4.73,0,0,0,0,4.73Z"/></pattern></defs><g id="Layer_3" data-name="Layer 3"><g id="Seigaiha"><rect class="cls-8" x="19.33" y="373.21" width="226.77" height="226.77" rx="28.35" transform="translate(600.48 333.42) rotate(90)"/><rect class="cls-9" x="14.67" y="366.92" width="198.43" height="198.43" rx="14.17"/><text class="cls-10" transform="translate(69.74 576.64)"><tspan class="cls-11">S</tspan><tspan x="6.56" y="0">eigaiha </tspan><tspan class="cls-12" x="48.62" y="0">P</tspan><tspan class="cls-13" x="55.38" y="0">a</tspan><tspan class="cls-14" x="61.62" y="0">t</tspan><tspan class="cls-15" x="66.02" y="0">t</tspan><tspan x="70.37" y="0">ern</tspan></text></g><g id="Ichimatsu"><rect class="cls-8" x="246.1" y="373.21" width="226.77" height="226.77" rx="28.35" transform="translate(827.25 106.64) rotate(90)"/><rect class="cls-16" x="241.44" y="366.92" width="198.43" height="198.43" rx="14.17"/><text class="cls-10" transform="translate(293.47 576.64)"><tspan class="cls-17">I</tspan><tspan x="3.38" y="0">chim</tspan><tspan class="cls-18" x="29.44" y="0">a</tspan><tspan x="35.68" y="0">tsu </tspan><tspan class="cls-12" x="54.71" y="0">P</tspan><tspan class="cls-13" x="61.46" y="0">a</tspan><tspan x="67.7" y="0">t</tspan><tspan class="cls-19" x="72.11" y="0">t</tspan><tspan x="76.45" y="0">ern</tspan></text></g><g id="Shippo_Pattern" data-name="Shippo Pattern"><rect class="cls-8" x="472.87" y="373.21" width="226.77" height="226.77" rx="28.35" transform="translate(1054.03 -120.13) rotate(90)"/><rect class="cls-20" x="468.22" y="366.92" width="198.43" height="198.43" rx="14.17"/><text class="cls-10" transform="translate(527.35 576.64)"><tspan class="cls-21">S</tspan><tspan class="cls-22" x="6.43" y="0">hip</tspan><tspan class="cls-23" x="23.93" y="0">p</tspan><tspan x="31.14" y="0">o </tspan><tspan class="cls-12" x="40.49" y="0">P</tspan><tspan class="cls-13" x="47.24" y="0">a</tspan><tspan x="53.48" y="0">t</tspan><tspan class="cls-19" x="57.89" y="0">t</tspan><tspan x="62.23" y="0">ern</tspan></text></g><g id="Asanoha_Pattern" data-name="Asanoha Pattern"><rect class="cls-8" x="19.33" y="599.98" width="226.77" height="226.77" rx="28.35" transform="translate(827.25 560.19) rotate(90)"/><rect class="cls-24" x="14.67" y="593.69" width="198.43" height="198.43" rx="14.17"/><text class="cls-10" transform="translate(69.49 803.42)"><tspan class="cls-17">A</tspan><tspan x="7.84" y="0">sanoha </tspan><tspan class="cls-25" x="49.13" y="0">P</tspan><tspan class="cls-18" x="55.88" y="0">a</tspan><tspan x="62.12" y="0">t</tspan><tspan class="cls-15" x="66.53" y="0">t</tspan><tspan x="70.87" y="0">ern</tspan></text></g><g id="Kagome_Pattern" data-name="Kagome Pattern"><rect class="cls-8" x="246.1" y="599.98" width="226.77" height="226.77" rx="28.35" transform="translate(1054.03 333.42) rotate(90)"/><rect class="cls-26" x="241.44" y="593.69" width="198.43" height="198.43" rx="14.17"/><text class="cls-10" transform="translate(297.46 803.42)">Kagome <tspan class="cls-25" x="46.73" y="0">P</tspan><tspan class="cls-13" x="53.48" y="0">a</tspan><tspan x="59.72" y="0">t</tspan><tspan class="cls-19" x="64.13" y="0">t</tspan><tspan x="68.47" y="0">ern</tspan></text></g><g id="Ichimatsu-2" data-name="Ichimatsu"><rect class="cls-8" x="472.87" y="599.98" width="226.77" height="226.77" rx="28.35" transform="translate(1280.8 106.64) rotate(90)"/><rect class="cls-27" x="468.22" y="593.69" width="198.43" height="198.43" rx="14.17"/><text class="cls-10" transform="translate(519.4 803.42)">Hanabishi <tspan class="cls-12" x="56.39" y="0">P</tspan><tspan class="cls-13" x="63.14" y="0">a</tspan><tspan x="69.38" y="0">t</tspan><tspan class="cls-19" x="73.79" y="0">t</tspan><tspan x="78.13" y="0">ern</tspan></text></g><line class="cls-1" x1="105.27" y1="849.67" x2="161.96" y2="849.67"/><line class="cls-1" x1="119.44" y1="874.22" x2="147.79" y2="825.13"/><line class="cls-1" x1="147.79" y1="874.22" x2="119.44" y2="825.13"/><text class="cls-28" transform="translate(261.91 93.58)"><tspan class="cls-29">K</tspan><tspan x="10.04" y="0">agotsurube Isshin</tspan></text><text class="cls-28" transform="translate(696.67 193.96)"><tspan class="cls-30">I</tspan><tspan x="4.48" y="0">nazuma Emblem</tspan></text><text class="cls-28" transform="translate(251.99 288.42)"><tspan class="cls-31">M</tspan><tspan x="14.69" y="0">istsplit</tspan><tspan class="cls-32" x="63.77" y="0">t</tspan><tspan x="69.62" y="0">er </tspan><tspan class="cls-33" x="88.34" y="0">R</tspan><tspan class="cls-34" x="98.1" y="0">e</tspan><tspan class="cls-35" x="107.12" y="0">f</tspan><tspan x="112.14" y="0">o</tspan><tspan class="cls-36" x="122.02" y="0">r</tspan><tspan x="127.76" y="0">ged</tspan></text><g id="Shippo_Pattern-2" data-name="Shippo Pattern"><rect class="cls-8" x="699.64" y="373.21" width="226.77" height="226.77" rx="28.35" transform="translate(1280.8 -346.9) rotate(90)"/><rect class="cls-2" x="694.99" y="366.92" width="198.43" height="198.43" rx="14.17"/><rect class="cls-2" x="694.99" y="366.92" width="198.43" height="198.43" rx="14.17"/><path d="M783.26,422.09h0a5,5,0,0,1-5,5H728.69a5,5,0,0,1-5-5h0a5,5,0,0,1,5-5h0a5,5,0,0,0,5-5h0a5,5,0,0,0-5-5H713.81v-9.92h44.65a5,5,0,0,1,5,5h0a5,5,0,0,1-5,5h-9.92a5,5,0,0,0-5,5h0a5,5,0,0,0,5,5H778.3A5,5,0,0,1,783.26,422.09Z" transform="translate(-18.83 -20.47)"/><path d="M902.32,412.17h0a5,5,0,0,1-5,5H877.51a5,5,0,0,0-5,5h0a5,5,0,0,0,5,5h0a5,5,0,0,1,5,5h0a5,5,0,0,1-5,5H837.83a5,5,0,0,1-5-5h0a5,5,0,0,1,5-5h19.84a5,5,0,0,0,5-5h0a5,5,0,0,0-5-5h-9.92a5,5,0,0,1-5-5h0a5,5,0,0,1,5-5h49.61A5,5,0,0,1,902.32,412.17Z" transform="translate(-18.83 -20.47)"/><path d="M823,491.54h0a5,5,0,0,1-5,5H768.38a5,5,0,0,1-5-5h0a5,5,0,0,1,5-5h9.92a5,5,0,0,0,5-5h0a5,5,0,0,0-5-5H748.54a5,5,0,0,1-5-5h0a5,5,0,0,1,5-5h0a5,5,0,0,0,5-5h0a5,5,0,0,0-5-5h-9.92a5,5,0,0,1-5-5h0a5,5,0,0,1,5-5h29.76a5,5,0,0,1,5,5h0a5,5,0,0,1-5,5h0a5,5,0,0,0-5,5h0a5,5,0,0,0,5,5h29.76a5,5,0,0,1,5,5h0a5,5,0,0,1-5,5h0a5,5,0,0,0-5,5h0a5,5,0,0,0,5,5H818A5,5,0,0,1,823,491.54Z" transform="translate(-18.83 -20.47)"/><path d="M912.24,486.58v9.92H887.43a5,5,0,0,1-5-5h0a5,5,0,0,1,5-5Z" transform="translate(-18.83 -20.47)"/><path d="M832.87,531.23h0a5,5,0,0,0,5,5h0a5,5,0,0,1,5,5h0a5,5,0,0,1-5,5H788.22a5,5,0,0,1-5-5h0a5,5,0,0,1,5-5H818a5,5,0,0,0,5-5h0a5,5,0,0,0-5-5h-9.93a5,5,0,0,1-5-5h0a5,5,0,0,1,5-5h29.77a5,5,0,0,1,5,5h0a5,5,0,0,1-5,5h0A5,5,0,0,0,832.87,531.23Z" transform="translate(-18.83 -20.47)"/><path d="M912.24,566v9.92H897.36a5,5,0,0,0-5,5v5h-9.93v-5a5,5,0,0,0-5-5h0a5,5,0,0,1-5-5h0a5,5,0,0,1,5-5Z" transform="translate(-18.83 -20.47)"/><path d="M788.22,556h-49.6a5,5,0,0,0-5,5h0a5,5,0,0,0,5,5h0a5,5,0,1,1,0,9.92H714.46a14.17,14.17,0,0,0,13.43,9.93h30.57a5,5,0,0,0,5-5h0a5,5,0,0,0-5-5h0a5,5,0,1,1,0-9.92h29.76a5,5,0,0,0,5-5h0A5,5,0,0,0,788.22,556Z" transform="translate(-18.83 -20.47)"/><text class="cls-10" transform="translate(750.41 576.64)"><tspan class="cls-37">E</tspan><tspan x="6.32" y="0">gasumi </tspan><tspan class="cls-25" x="47.92" y="0">P</tspan><tspan class="cls-18" x="54.67" y="0">a</tspan><tspan x="60.91" y="0">t</tspan><tspan class="cls-15" x="65.32" y="0">t</tspan><tspan class="cls-14" x="69.66" y="0">ern</tspan></text></g></g><g id="Layer_4" data-name="Layer 4"><path class="cls-8" d="M912,251a28.57,28.57,0,0,1-6-3.76L898.23,241H887.47a13.67,13.67,0,0,1-2.65-.3l-.4-.08-7.62-1.23,1.49-23.82-1.53-2.22a89,89,0,0,1-4.82-7.76l-3.46,2.74L821,161l11-10.89,2.61-2.85.46-.51c.39-.43.72-.79,1.06-1.14l5.52-5.51,10.89-10.91.36-.47.7-.89.54-.66.66-.54.74-.59c.25-.2.63-.49.75-.61q2.19-2.14,4.35-4.32l2.41-2.42c.34-.33.69-.66,1-1l5.16-4.77,2.38,1.56c.72-1.31,1.49-2.64,2.29-4-6.35-2.18-10.84-7.06-12.78-14-.38-1.39-.68-2.71-1-4.11l0-.1-1.1-.37a24.18,24.18,0,0,1-15.74-17.09c-.58-2.11-1.13-4.23-1.67-6.35l-.57-2.21a10.16,10.16,0,0,1-.3-2l0-.28-1.35-15.52,15.36,8.13,3,1.57a117.3,117.3,0,0,0,24.5,9.91,163,163,0,0,0,21.22,4c1.61.23,3.37.44,5.35.65l23.31-22.62,0,0,1.6-2.28-.09-1.74,2.06-2.53a14.47,14.47,0,0,1,7.63-5,12.74,12.74,0,0,1,1.36-1.69A25,25,0,0,1,947,34.73l.6-.51,4.53-4L955.33,32l1.53.25a8.74,8.74,0,0,1,5.25,2.4l.48.43.08.08a18.34,18.34,0,0,1,3.16,3.39,14.69,14.69,0,0,1,7.56,4.78L975.72,46l-.13,1.81,1.43,2-.1.39,23.33,22.73h0c1.81-.21,3.47-.43,5.09-.68,5.46-.85,11.65-1.8,17.48-3.09a94.6,94.6,0,0,0,20.46-6.78c2.62-1.25,5.3-2.6,7.89-3.9l4.14-2.09a15.45,15.45,0,0,1,1.62-.67l.44-.16,14.49-5.5-3.17,15.2c-.1.45-.17.88-.25,1.3l0,.1a28.89,28.89,0,0,1-1,4.38c-1.16,3.4-2.46,6.94-4,10.82A15.32,15.32,0,0,1,1053.2,91c-1.13.36-2.26.7-3.38,1-1.27,5.34-3.32,11.13-8.9,15.56a21.76,21.76,0,0,1-5,3c.73,1.2,1.45,2.44,2.14,3.69l1.93-1.35,8.73,8.7c.94.93,1.89,1.88,2.84,2.85a10.12,10.12,0,0,1,1.18.38l2.41.75,1.53,2.15a9,9,0,0,1,1.73,3.59q8.79,8.73,17.5,17.48l4.49,4.49c.38.38.74.77,1.13,1.2l.4.44,5.09,5.5-4.85,5.75-.25.31c-.27.33-.66.8-1.17,1.32l-2.09,2.09-.81.81a15,15,0,0,1,.19,2.54,12,12,0,0,1-9.6,11.94,18.69,18.69,0,0,1-4.39.53h-1.8l-18.1,18.1-4-2.51c-2.73,5.61-5.63,10.34-8,13l-.31.34c.07.94.14,2,.22,3,1,14,.54,15.47.17,16.77l-1.74,6.2h-28.33a30.88,30.88,0,0,1-.93,5l1.11,1-2.16,2.14-.18.47c-.19.48-.42.95-.65,1.42l-.1.21c-.14.29-.31.59-.49.89l-3.43,6-3.17-1-37.39,37.06Z" transform="translate(-18.83 -20.47)"/><path d="M922.77,144.57h4a11.46,11.46,0,0,1-.64,1.15,60,60,0,0,0-7,12,44.58,44.58,0,0,0-3.07,11.93,37,37,0,0,0,2.21,16.64,9.77,9.77,0,0,0,.46.9c.48-2.9.91-5.49,1.35-8.08a22.89,22.89,0,0,1,4.66-10.83c3.53-4.36,8-7,13.75-6.61,8.65.55,14.8,7.33,14,16a10.72,10.72,0,0,1-7.38,8.54,7.8,7.8,0,0,1-5-.8c-.87-.37-1.71-.82-2.76-1.32a24.17,24.17,0,0,0,0,3.53c1.23,7.91,5.63,13.34,13,16.45,1.83.78,3.63,1.62,5.43,2.45a13.16,13.16,0,0,1,1.28.77c-1.56,1.92-3.55,2.54-11,3.45a17.77,17.77,0,0,0,5.91,1.34c11.1.79,20.73-2.9,29.18-9.87a84.26,84.26,0,0,0,6.13-6.12l-.28-.4c-.46.22-.93.42-1.38.65a55,55,0,0,1-11.88,4.78,19.42,19.42,0,0,1-11.59-.3c-5.62-2.09-8.88-6.31-10.18-12a13.88,13.88,0,0,1,2.94-12.34,11.88,11.88,0,0,1,10.31-4.33,6.28,6.28,0,0,1,4.59,2.75,9.52,9.52,0,0,1,2.06,6c0,1,0,2,0,3.29a17.47,17.47,0,0,0,1.67-.54c4.88-2.11,7.59-6,8.82-11a37.4,37.4,0,0,0,1-7.37c.12-3-.14-6-.23-9,0-.54,0-1.08,0-1.95,4.27,1.39,6.47,4.65,8.93,7.68a24.68,24.68,0,0,0-3.65-9c-1.68-2.76-3.62-5.35-5.6-8.24h4.69c1.8,2.93,3.77,5.9,5.5,9a40,40,0,0,1,4.65,14A40.79,40.79,0,0,1,997,182a43.54,43.54,0,0,1-55.67,32.11,43,43,0,0,1-14.19-8.2,44.42,44.42,0,0,1-12.49-17.82,40.67,40.67,0,0,1-2.81-16.75,41.17,41.17,0,0,1,8.28-23.08C921.06,147.05,921.91,145.79,922.77,144.57Z" transform="translate(-18.83 -20.47)"/><path d="M849.26,63.29c1.64.87,3,1.59,4.42,2.34A125.54,125.54,0,0,0,880,76.26a171.27,171.27,0,0,0,22.32,4.27c5.23.74,10.5,1.16,15.76,1.63,4.3.38,8.62.59,12.92.93,10.93.86,21.88.6,32.82.55,5.28,0,10.56-.33,15.84-.6,4.82-.24,9.64-.52,14.45-.93,4.2-.36,8.4-.8,12.57-1.44,6-.93,12.06-1.87,18-3.18a103.65,103.65,0,0,0,22.27-7.41c4.09-2,8.12-4,12.17-6,.31-.16.64-.25,1.26-.49a40,40,0,0,1-1,4.79c-1.19,3.51-2.48,7-3.83,10.45a7,7,0,0,1-4.83,4.11,140.74,140.74,0,0,1-18.52,4.6c-5.46.92-11,1.62-16.46,2.29-4.18.5-8.39.82-12.59,1.19-1.66.15-3.34.24-5,.31-2.8.13-5.6.17-8.39.35-7.36.49-14.73.61-22.11.63-7.69,0-15.37.22-23.06.24-4.62,0-9.25-.11-13.88-.3-5.28-.21-10.55-.56-15.83-.86-1.92-.1-3.85-.19-5.78-.34-4.61-.36-9.22-.65-13.81-1.18q-7.72-.88-15.4-2.16c-4.92-.82-9.8-1.86-14.69-2.83a24.07,24.07,0,0,1-3.22-.91,15.75,15.75,0,0,1-10.37-11.34c-.78-2.79-1.48-5.61-2.2-8.42A6.18,6.18,0,0,1,849.26,63.29Z" transform="translate(-18.83 -20.47)"/><path d="M868.05,88.53c1.45.15,2.49.24,3.53.37,6.25.78,12.49,1.62,18.75,2.35,3.69.42,7.39.68,11.08,1q7.22.62,14.43,1.18c1.82.14,3.65.25,5.48.32,3,.13,6.1.26,9.15.33,5.9.13,11.8.2,17.7.33,3.31.07,6.61.28,9.91.26q8.63,0,17.25-.31c4.32-.12,8.63-.36,12.95-.61,4.61-.26,9.23-.53,13.83-.92,4.81-.4,9.61-.94,14.41-1.43,4-.42,8.09-.82,12.12-1.29,4.19-.49,8.37-1.07,12.56-1.61.19,0,.38,0,.7,0-1,4.76-2.29,9.28-6.27,12.44a13.78,13.78,0,0,1-6.68,2.84c-3.86.56-7.77.89-11.66,1.3q-4.32.45-8.64.84c-1.77.15-3.55.26-5.33.35-2.74.13-5.48.25-8.23.33-7.42.22-14.84.41-22.26.61-.66,0-1.31,0-2.21,0V102c-.62-.12-1-.23-1.38-.27s-.82,0-1.23,0l-26.11-.29c-.65,0-1.3.06-2.2.11V107c-.78.08-1.32.19-1.85.19-3.47,0-6.93,0-10.39,0-3.61-.05-7.22-.16-10.83-.3-4.22-.17-8.44-.3-12.64-.63-4.81-.38-9.62-.87-14.4-1.47-3.73-.47-7.45-1.07-11.13-1.82-4.79-1-7.76-4-9.06-8.72C868.91,92.49,868.55,90.7,868.05,88.53Z" transform="translate(-18.83 -20.47)"/><path d="M1001,117.43h15.17c.16,1.16.39,2.2.44,3.25.16,3,.2,6,.36,9,.26,4.87.58,9.74.87,14.6.11,1.88.24,3.76.32,5.63.13,3,.19,6,.35,9,.25,4.82.57,9.63.85,14.45.13,2.08.23,4.16.33,6.25.12,2.74.21,5.48.34,8.23.19,4,.41,8,.61,12,0,.59,0,1.19,0,1.72-1.33.5-18,.57-19.61.16C1000.7,200.63,1000.62,119.52,1001,117.43Z" transform="translate(-18.83 -20.47)"/><path d="M894,117.41h14.94c.06.76.16,1.45.16,2.13,0,13.19,0,26.38,0,39.58,0,13.54.17,27.08.26,40.62,0,.7-.07,1.41-.11,2.26a9,9,0,0,1-1.51.26q-8.4,0-16.81,0a10.43,10.43,0,0,1-1.34-.18c0-1.52,0-3,0-4.42,0-.76.15-1.52.18-2.28.23-5.33.42-10.67.67-16,.16-3.66.4-7.31.59-11L892,150.3c.19-3.66.41-7.31.6-11,.31-6,.6-12,.94-18C893.59,120.12,893.8,118.86,894,117.41Z" transform="translate(-18.83 -20.47)"/><path d="M942.09,104.28H968c.48,1.13.61,30.54.12,32.5a21.32,21.32,0,0,1-2.74.36c-7.24,0-14.47,0-21.7,0-.5,0-1-.08-1.72-.15-.45-3.68.32-7.26.18-10.84s0-7.23,0-10.84Z" transform="translate(-18.83 -20.47)"/><path d="M955.19,154.2c-5.73-4.28-11.84-5.94-18.74-3.71a35,35,0,0,0-11,6.21c-.46.36-.94.7-1.52,1.13.1-3.83,2.88-10.76,5.28-13.27.46,0,1-.08,1.56-.08q17.21,0,34.39,0a7.75,7.75,0,0,1,6.7,3.6,14,14,0,0,1,2.28,9.76c-.4,3.89-1.65,7.42-4.64,10.19a12.15,12.15,0,0,1-6.77,3.24c-3.7.49-7.24.08-10.28-2.33a11.08,11.08,0,0,1-4.48-8.37c-.11-2.83,1.39-4.69,4.41-5.7C953.32,154.58,954.26,154.42,955.19,154.2Z" transform="translate(-18.83 -20.47)"/><path d="M1021.06,163c-.55-1.65-.82-10.18-.38-11.67.48,0,1-.11,1.57-.12,2.34,0,4.68,0,7,0,4.94-.08,9.87-.22,14.8-.26a6.79,6.79,0,0,1,5.52,2.12c1.65,1.86,1.67,4,1,6.17a5,5,0,0,1-4.2,3.55c-1.1.19-2.22.26-3.34.36-2.06.17-3,1.16-2.84,3.17a2.16,2.16,0,0,0,1.75,2.2,11.55,11.55,0,0,0,2.86.41c6.47,0,12.93,0,19.4,0a8.85,8.85,0,0,1,2.41.3c2.14.59,3,1.72,2.94,3.86s-1,3.25-3.1,3.77a10.25,10.25,0,0,1-2.41.29q-16.27,0-32.55,0a10.07,10.07,0,0,1-2-.16c-3.49-.65-3.74-3.06-3.26-5.61.27-1.4,1.87-2.34,3.69-2.47a18.28,18.28,0,0,0,2.87-.33,2.73,2.73,0,0,0-.2-5.37,8.54,8.54,0,0,0-1.67-.12c-2.7,0-5.4,0-8.1,0C1022.29,163.15,1021.69,163.08,1021.06,163Z" transform="translate(-18.83 -20.47)"/><path d="M889.05,167.3l-.86,11.61c-1.53.15-2.93.4-4.33.41-6.07.06-12.13.05-18.19,0A11.3,11.3,0,0,1,863,179a5.57,5.57,0,0,1-4.14-6.53c.63-3.41,2-4.7,5.48-5.1l2.73-.29a2.86,2.86,0,0,0,2.58-2.42,2.68,2.68,0,0,0-2-2.92,11.27,11.27,0,0,0-3-.43c-6.27,0-12.54,0-18.8,0-.62,0-1.23,0-1.84,0-2.21-.14-3.58-1.29-3.72-3.1-.22-2.69.67-4.09,3.13-4.58a26.35,26.35,0,0,1,4.85-.51q14.52-.08,29,0a15.6,15.6,0,0,1,3.33.38,3.9,3.9,0,0,1,3,4.34,3.77,3.77,0,0,1-3.62,3.49c-1,.1-2,.18-3,.35a2.35,2.35,0,0,0-2.18,2.35c-.13,1.53.35,2.41,1.7,2.87a5.72,5.72,0,0,0,1.8.25c2.9,0,5.81,0,8.71,0C887.64,167.15,888.23,167.23,889.05,167.3Z" transform="translate(-18.83 -20.47)"/><path d="M910.8,204.86v27.39a9.5,9.5,0,0,1-1.61.27q-10.85,0-21.7,0a12.48,12.48,0,0,1-1.72-.26c.57-9.23,1.14-18.33,1.71-27.36C888.88,204.28,909.32,204.27,910.8,204.86Z" transform="translate(-18.83 -20.47)"/><path d="M999.3,232.15c-.06-9.25,0-18.32,0-27.28,1.45-.51,21.27-.59,22.93-.21.69,1.43,2.36,25.66,1.84,27.49Z" transform="translate(-18.83 -20.47)"/><path d="M911.18,133h28.35c.05,1.18.1,2.32.12,3.46s0,2.31,0,3.6h30.81v-6.71c1.35-.57,26.58-.67,28.36-.18v9.13c-1.23.45-86,.52-87.51.1C910.85,141.35,910.73,135.1,911.18,133Z" transform="translate(-18.83 -20.47)"/><path d="M953.79,267.38c.47-1.79.92-3.24,1.23-4.73a5.14,5.14,0,0,0-2.86-6.1,17.31,17.31,0,0,0-2.94-1.25,9.1,9.1,0,0,1-6.75-7.35c-1.07-5.46.22-10.29,4.55-14.07a11.14,11.14,0,0,1,6.14-2.46,14,14,0,0,1,6.64.51c5.25,1.87,7.63,6,8.56,11.15,1,5.43-.82,10.24-3.83,14.66A33.27,33.27,0,0,1,954.7,267C954.5,267.09,954.26,267.16,953.79,267.38Zm.54-24.9a3,3,0,0,0,2.63-2.54,3.2,3.2,0,0,0-3-2.75,2.39,2.39,0,0,0-2.39,2.6A2.74,2.74,0,0,0,954.33,242.48Z" transform="translate(-18.83 -20.47)"/><path d="M1039.08,123.93l2.25,2.24c1.69,1.69,3.41,3.36,5.06,5.09a3.39,3.39,0,0,0,2.9,1.38,1.78,1.78,0,0,1,.64.19c.11.15.23.24.22.32-.06,1.81,1,2.93,2.23,4.1q11.07,11,22.06,22c.42.43.81.88,1.28,1.39-.37.45-.64.81-1,1.12-1.87,1.88-3.76,3.73-5.61,5.63a2.84,2.84,0,0,1-2.29,1c-1.61,0-3.22,0-4.84,0l-.16-.38,7.78-7.8-19.09-18.47-.7,1.24h-30.28c-.17-3.55-.32-6.8-.48-10.2.93-.07,1.57-.15,2.21-.15h18.49c.59,0,1.17-.09,1.92-.14-.62-3-2-5.61-3-8.28Z" transform="translate(-18.83 -20.47)"/><path d="M870.46,123.84c-1.08,2.87-2.16,5.75-3.36,9,2.22.12,4.12.05,6,.07s4,0,6,0H890.8c.68,3.39-.3,6.57-.08,9.69-1.46.51-29.28.54-30.7.09l-.35-1.69c-.47.42-.84.72-1.17,1.05-2.92,2.91-5.88,5.79-8.73,8.77a4.85,4.85,0,0,1-4,1.71,33.62,33.62,0,0,0-4.84.47c.55-.6.9-1,1.27-1.38q8.2-8.22,16.41-16.43c.57-.57,1-1.23,1.64-2,.58-.48,1.37-1,2-1.69,2.3-2.25,4.55-4.53,6.82-6.8.35-.35.73-.68,1.1-1Z" transform="translate(-18.83 -20.47)"/><path d="M919.44,246.48c1,.36,2.18.81,3.36,1.21,1.74.6,3.46,1.21,5.22,1.73a6.5,6.5,0,0,1,2.84,1.69q11.21,11.26,22.45,22.5a11.59,11.59,0,0,1,1.14,1.66c.8-.74,1.25-1.13,1.66-1.54q11.35-11.34,22.69-22.7a6.72,6.72,0,0,1,2.8-1.75c2.7-.86,5.39-1.81,8.08-2.73l.38.36-35.24,34.94Z" transform="translate(-18.83 -20.47)"/><path d="M911.28,240.64c1.37-.2,2.42-.32,3.46-.51,2.38-.43,3.31-1.61,3.19-4a21.75,21.75,0,0,1-.14-2.26c.26-4.22,4.2-6.46,7.82-6.78a8.39,8.39,0,0,1,9.16,7.29,8.89,8.89,0,0,1-4.85,9.33c-3.95,2.19-8,1.94-12.1.54A21.09,21.09,0,0,1,911.28,240.64Zm18.88-6.78a1.76,1.76,0,0,0-1.65-1.81,2.11,2.11,0,0,0-1.91,1.82,2,2,0,0,0,1.82,1.89A1.78,1.78,0,0,0,930.16,233.86Z" transform="translate(-18.83 -20.47)"/><path d="M991.07,247.48c-.29-1-.55-1.94-.9-2.89-.91-2.48-2.29-3.34-4.7-2.43-5.85,2.19-10-3-10.35-7.74-.29-4,1.86-6.61,5.26-8.33s6.35-.8,9.07,1.4a11.93,11.93,0,0,1,4.35,9.22,22,22,0,0,1-1.66,9.39c-.15.37-.34.74-.52,1.1a3,3,0,0,1-.22.39Zm-7.71-15.22a1.76,1.76,0,0,0-1.67-1.81,1.86,1.86,0,0,0-1.88,1.8,1.81,1.81,0,0,0,1.86,1.8A1.76,1.76,0,0,0,983.36,232.26Z" transform="translate(-18.83 -20.47)"/><path d="M833.1,161l6.26-6.18c0,.73,0,1.66,0,2.58a4.8,4.8,0,0,0,1.58,3.82q6.78,6.72,13.51,13.49c3.5,3.5,7,7,10.46,10.51a7.09,7.09,0,0,1,1.5,2.41c1,2.52,1.79,5.09,2.67,7.64.16.46.29.94.43,1.41l-.37.3Z" transform="translate(-18.83 -20.47)"/><path d="M985.22,79.58a8.14,8.14,0,0,1-1.59.37c-2.94.15-5.89.38-8.83.3-1.53,0-3-.76-4.59-1-2.91-.43-5.82-.82-8.75-1.07a60.51,60.51,0,0,0-7.61-.28c-3.08.12-6.16.49-9.24.85a50.36,50.36,0,0,0-7,1.13,16.12,16.12,0,0,1-6.9.48c-1.75-.28-3.55-.25-5.32-.37a2,2,0,0,1-1.15-.47,5.28,5.28,0,0,1,1.23-.82c3.49-1.07,7-2.27,10.51-3.07s7.29-1.24,11-1.73a36.77,36.77,0,0,1,4.07,0c.71,0,1.42-.11,2.12-.12,1.22,0,2.43,0,3.65,0l3,0a4.11,4.11,0,0,1,.6-.08c3.4.46,6.8.87,10.19,1.43,2.59.42,5.17,1,7.73,1.59,1.36.34,2.65,1,4,1.46,1,.36,2,.66,3,1Z" transform="translate(-18.83 -20.47)"/><path d="M1033.9,179.46h4.75c.07,5.54-7.76,23.5-12.82,29.17-.16-1.67-.29-3.09-.43-4.57l-2-.51A84.18,84.18,0,0,0,1033.9,179.46Z" transform="translate(-18.83 -20.47)"/><path d="M887,203.66l-2.59.32-.24,4.47-.45.1a85.91,85.91,0,0,1-12.31-26.87,24.78,24.78,0,0,1,5.51-.08A88.38,88.38,0,0,0,887,203.66Z" transform="translate(-18.83 -20.47)"/><path d="M879.47,129.69h-5c-.18-3,7.85-18,12.63-23.14.16.24.41.45.46.69.32,1.6.7,3.19.86,4.81a3.71,3.71,0,0,1-.63,1.94c-2.09,3.73-4.27,7.41-6.32,11.15C880.71,126.56,880.16,128.1,879.47,129.69Z" transform="translate(-18.83 -20.47)"/><path d="M939.82,60.61c-.34.37-.66.75-1,1.11-3.6,3.6-7.17,7.22-10.82,10.77a8.2,8.2,0,0,1-2.54,1.57c-2.77,1.16-5.58,2.22-8.37,3.31a1,1,0,0,1-.82,0c6.8-6.59,13.59-13.19,20.46-19.86.74.89,1.71,2,2.69,3.19Z" transform="translate(-18.83 -20.47)"/><path d="M1021.3,111.91c.4-1.78.8-3.54,1.22-5.35,3.11,2.13,12.39,18.41,13,22.56a8,8,0,0,1-4.69.2c-1.4-2.88-2.75-5.89-4.32-8.77S1023.09,114.88,1021.3,111.91Z" transform="translate(-18.83 -20.47)"/><path d="M1018.82,108.6c-.45,2.16-.85,4.11-1.27,6.14h-17.4c-.79-1.48-.75-3.16-1.14-5Z" transform="translate(-18.83 -20.47)"/><path d="M992.67,77.43c-3.21-1.18-6.17-2.24-9.11-3.36a4.21,4.21,0,0,1-1.37-.93q-5.73-5.7-11.44-11.43a14.36,14.36,0,0,1-.94-1.17l2.83-2.63Z" transform="translate(-18.83 -20.47)"/><path d="M910.5,114.74H892.81l-1.28-6.14L911,109.76C911.55,111.56,910.51,113,910.5,114.74Z" transform="translate(-18.83 -20.47)"/><path d="M1056.91,179.07l-17.13,17.13c.17-.5.4-1.19.64-1.87.7-2,1.36-4.06,2.13-6.05a7.29,7.29,0,0,1,1.37-2.31c1.85-2,3.82-3.81,5.7-5.75a3.53,3.53,0,0,1,2.86-1.16C1054,179.11,1055.47,179.07,1056.91,179.07Z" transform="translate(-18.83 -20.47)"/><path d="M954.58,53.26a29,29,0,0,1-4.52-6.45,3.58,3.58,0,0,1,.79-4.1c.72-.77,1.57-1.41,2.37-2.12l1.39.78,1.19-.64c.13,0,.33,0,.42.08A16.8,16.8,0,0,1,959,43.6a3.73,3.73,0,0,1,.41,2.75C958.55,49,956.62,51,954.58,53.26Z" transform="translate(-18.83 -20.47)"/><path d="M953.7,53.52c-.22.27-.29.45-.41.49a66.91,66.91,0,0,1-6.63,2.09c-2.2.47-3.51-.58-4.62-2.86a12.62,12.62,0,0,1-.55-1.71l.85-1.22-.07-1.4a6,6,0,0,1,3.34-2.14,4,4,0,0,1,3.81,1A23.24,23.24,0,0,1,953.7,53.52Z" transform="translate(-18.83 -20.47)"/><path d="M963.57,64.16l-1.29.38a4.34,4.34,0,0,1-7-1.49A9.41,9.41,0,0,1,955,60.5c-.05-1.76,0-3.52,0-5.11.34-.22.42-.34.5-.33a16.25,16.25,0,0,1,7.71,2.56c1.23.81,1.65,3.12,1.07,4.94C964.05,63.08,963.8,63.58,963.57,64.16Z" transform="translate(-18.83 -20.47)"/><path d="M954.13,55.1c0,2.53.16,4.91,0,7.26a3.75,3.75,0,0,1-3.55,3.24c-.85.08-1.71,0-2.57,0l-1-1.3-1.26-.24a5.61,5.61,0,0,1-.68-4.56,3.19,3.19,0,0,1,1.41-2c2.16-1,4.45-1.69,6.7-2.47C953.36,54.91,953.69,55.05,954.13,55.1Z" transform="translate(-18.83 -20.47)"/><path d="M967,49l-.09,1.34.86,1.2a12,12,0,0,1-.38,1.38c-1,2.44-2.38,3.64-5,3.26a23.75,23.75,0,0,1-6.83-2.34,7.88,7.88,0,0,1,.57-1.19c.9-1.29,1.79-2.6,2.78-3.83C961.14,45.94,964.42,46,967,49Z" transform="translate(-18.83 -20.47)"/><path d="M884.31,124.85l6.87,1.91v4c-1.87.53-3.72.21-5.68.24C884.67,129,884.68,127,884.31,124.85Z" transform="translate(-18.83 -20.47)"/><path d="M1025.85,124.83c-.33,2.08-.64,4-1,6H1019v-4.07Z" transform="translate(-18.83 -20.47)"/><path d="M874.92,145.9l-.62,5.81h-5.13a21.53,21.53,0,0,1,.68-5.81Z" transform="translate(-18.83 -20.47)"/><path d="M940.49,239.39l-.41,5.4-6.77-1.39,3.36-4.77Z" transform="translate(-18.83 -20.47)"/><path d="M974.21,238.33l3.46,4.68L971,244.56c-.22-1.93-.4-3.6-.6-5.43Z" transform="translate(-18.83 -20.47)"/><path d="M916.29,130.9h-5.18V127l5.76-1.55C916.68,127.22,916.5,128.94,916.29,130.9Z" transform="translate(-18.83 -20.47)"/><path d="M998.83,130.93H994c-.82-1.68-.66-3.49-.92-5.43l5.73,1.45Z" transform="translate(-18.83 -20.47)"/><path d="M1040.13,145.87l.45,3.69h-4.76c-.15-1.19-.29-2.36-.46-3.69Z" transform="translate(-18.83 -20.47)"/></g><g id="Kagotsurube_Isshin" data-name="Kagotsurube Isshin"><path id="Base_Outline" data-name="Base Outline" class="cls-8" d="M676.37,53.41c-3.1.89-29.92,5.48-39.27,5.82s-77.94,1.54-77.94,1.54l-.41-3.47s-8.1,1.87-12.36,1.75a41.57,41.57,0,0,1-12.45-2.28l-.37-6-2.68.26s0-7-.89-10.75l-2.65.38S524.1,27,519.71,21.28L509.34,34.52A20.28,20.28,0,0,1,512,42.33c.69,4.92-1.64,11.11-3.25,12.66,0,0-.83-2.16-2.06-4.92,0,0-2.48,3.35-3,6.06l-4.13,1.22s0-9.15,1.91-12.53,2.53-4.46.36-5.81-3.42,0-6.29,2.74-7.83,7.41-12.09,8.66-6.33-.25-7.86.32-5.69,5.08-8.4,5.88-21.61,4-26.65,3.34l-.09,1.65s-19.82,1.3-34.5-1.13c0,0-5.15-.49-6.49-.36s-.63.94,5.9,5,5.24,3.75,2.43,4.71-15.08.37-26.93-2.9-9.6-2.53-28.58-1.61c-10.14.49-62.09.88-129.48-2.93s-87.66-7.61-90-7.83-5.41-.44-2.34,2,3.66,4.06-.22,3-9.4-2.66-12.89-5.79c0,0-26.86-4.69-45.95-10.08S24.86,29.73,24.86,29.73,45.22,55.49,64,63.54s34.52,12.32,65.41,15.94,105.29,9.06,162.15,10,83.34,1.63,107.83,2.55,71.33,3,77.81,6.81L473.59,88.8l1.63,0s33.79,24.62,57,21.28l3.36,2.48s-2.66-8.63-1.94-12.59.64-2.31.78-5.75a47.07,47.07,0,0,0,4.76,1.25l-.57-2.89a11.55,11.55,0,0,0,6.28,0l-1.53-7.76a25.34,25.34,0,0,1,12.73-2c7.25.75,7.53,1.52,12.66.51l-.57-2.89s39.26-.35,51.32-.13,39.84-.19,39.84-.19L659,81.82l5.63-1.25a9.12,9.12,0,0,0,5.59.68c3.16-.62,3-1.15,7-1.92s2.82-3,3.18-8.14-1.16-8.65,2-11.45,3.13-2.12,3.61-3.85S679.48,52.53,676.37,53.41ZM518.69,100.06s0-.16,0-.43l0,0c-1.24-.6-11.12-8.8-12.09-9.93,0,0-.88-4,1.16-3.14s8.48,7.26,8.48,7.26l3-.17a17.9,17.9,0,0,0-.47,6C519.8,100.2,518.69,100.06,518.69,100.06Z" transform="translate(-18.83 -20.47)"/><path id="Darkness" d="M472.78,77.72c-4.22-1.42-2.8.08-11.23-3.61s-15.75-7.52-21.14-13h0l0,.48s-19.82,1.3-34.5-1.13c0,0-5.15-.49-6.49-.36s-.63.94,5.9,5,5.24,3.75,2.43,4.71-15.08.37-26.93-2.9-9.6-2.53-28.58-1.61c-10.14.49-62.09.88-129.48-2.93s-87.66-7.61-90-7.83-5.41-.44-2.34,2,3.66,4.06-.22,3-9.4-2.66-12.89-5.79c0,0-20.27-3.54-38.11-8h0s9.74,10.56,28.94,14.58,33.27,7.74,55.05,9.18,51.44,4.61,96.18,5.73c0,0-18.33-7.71-23-9.42,22,1.59,52.27,3.15,62.59,3.09s27.51-.06,47.28,5S379.44,84,395.85,84.31s25.44.91,34.66.5,10.92-1.3,11.76-3.25.61-4.53-4.74-7.33-9-4.62-14.88-5.53c0,0,1.64,6.75.73,8-1.39,2-2.44,2.54-7.8,3.32-7.12,1-18.09-1.23-28.69-3.09s-25.48-6.82-35.74-8.37a79.67,79.67,0,0,1,18.05,1c9.32,1.55,21.72,4.37,27.8,5.24s13.51,2.79,17.2,2,5.94-.32,4.8-5.18-2.28-5.84-2.28-5.84,3.81-1.21,13.16,1.45,12.13,4.37,14.38,6.28,10.67,6,20.26,7c9.29,1,17.33,1.43,17.82,1.45A74.32,74.32,0,0,0,472.78,77.72Z" transform="translate(-18.83 -20.47)"/><path d="M231.85,77.13c-14.58-.74-74.92-4.46-94.77-7S100,64.38,86.7,58.34,70.92,48.35,66,42.15h0c-6.94-2-14.46-4.26-21.16-6.29h0C56,47.09,62.66,56.43,80.36,62S102.41,70,134,72.85s114.16,9.44,143.32,8.76L267.82,78S246.43,77.87,231.85,77.13Z" transform="translate(-18.83 -20.47)"/><path d="M444.72,76.88s7,6.3,12.44,8.35c0,0-9.94.29-15.17,1.52C442,86.75,446.37,85,444.72,76.88Z" transform="translate(-18.83 -20.47)"/><path d="M259.39,69.76s13.57,6.32,23.07,8.52a155.25,155.25,0,0,0,31.73,4.49c13.09.49,22.3.87,40.91.61,0,0-14.06-4-26.9-6.64S308.4,73,300.5,73.8a16.23,16.23,0,0,0,8.66,5.42A90.68,90.68,0,0,1,289.54,77C277.72,74.55,259.39,69.76,259.39,69.76Z" transform="translate(-18.83 -20.47)"/><path d="M475.52,50.73a2.45,2.45,0,0,0-.33.16c2.78,1,5.45,1.25,5.5,2.29s-1.14,2.32-3.48,2.78-4.59,1.5-9.15.26h0a4.82,4.82,0,0,1-.94.39c-1.26.38-6,1.27-11.29,2h0s13.2,8,19.89,7,12.2-4.65,13.44-7.14,2.63-6.81,3.59-8.8a27.86,27.86,0,0,1-9.37.73C479.12,51.66,477.05,50.16,475.52,50.73Z" transform="translate(-18.83 -20.47)"/><path d="M516.61,64c-.63-3.73-3.06-4.77-3.06-4.77-.6,3.16-.7,5.2-1.47,7.48s-2.42,5.24-5.51,10.11-2.85,10.8-.06,12.88c0,0-.88-4,1.16-3.14s8.48,7.26,8.48,7.26l3-.17a15.37,15.37,0,0,1,2.55-4,111.93,111.93,0,0,1-6.45-10.08C518.5,72,517.25,67.7,516.61,64Z" transform="translate(-18.83 -20.47)"/><path d="M533.12,67.73c.82,4.16,2,13.85,2,13.85a3.84,3.84,0,0,0,2.42.46,62.16,62.16,0,0,0-.91-8.81C535.8,68.25,533.12,67.73,533.12,67.73Z" transform="translate(-18.83 -20.47)"/><path d="M546.26,77.17a6.53,6.53,0,0,0-3.87,1.89l.21,1a36.63,36.63,0,0,1,4.66,3.34h0a26.07,26.07,0,0,1,8.86-.63c.84.08,1.58.17,2.25.26h0S548.6,77,546.26,77.17Z" transform="translate(-18.83 -20.47)"/><path d="M540.07,69.2l-.09,0Z" transform="translate(-18.83 -20.47)"/><path d="M540.07,69.2c9.87-1.85,11-6.82,10.39-10.42h0a34.51,34.51,0,0,1-3.45.27C546.67,67.4,540.86,69,540.07,69.2Z" transform="translate(-18.83 -20.47)"/><path d="M558.71,61.72a32,32,0,0,1-9.42,10.81s7.9,4.39,19.32,9.93l-.4-2s7.41-.07,16.78-.13C578.61,75,558.71,61.72,558.71,61.72Z" transform="translate(-18.83 -20.47)"/><path d="M589.77,80.06l.3.22c8.51,0,17.75-.07,24.28,0h0c-11.62-9.33-21.43-15-29.16-19.94h0l-24.27.44C567.31,64.74,585.39,76.6,589.77,80.06Z" transform="translate(-18.83 -20.47)"/><path d="M643.36,80.29c-13.73-11.16-17.77-13.53-30.71-20.51l-23.77.45h0c20.65,12.26,19.45,12.34,28.86,20h0l1.79,0C625.42,80.41,635.05,80.37,643.36,80.29Z" transform="translate(-18.83 -20.47)"/><path d="M617.86,59.68c16.68,9.68,19.62,12,29.42,20.58h0l9.56-.11c1.52-1.77,2.07-4,.45-9.09s-3.29-8-15.61-12.18h0c-1.77.18-3.33.3-4.58.35C634.45,59.32,627.08,59.49,617.86,59.68Z" transform="translate(-18.83 -20.47)"/></g><g id="Mistsplitter_Reforged" data-name="Mistsplitter Reforged"><path class="cls-8" d="M665,270.24,670.1,257s-15.86.15-22.44,2.41-11.56,2-13.49,1.63-8.24,1.05-16.54,1.72-20.78,1.07-20.78,1.07-3.55,2-5.43,1.94l-52-2.61s-1-2.63-2.77-2.34a1.43,1.43,0,0,0-1.28,1.87l-7.27-.5s-1.59-1.61-2.24-1.51a80.43,80.43,0,0,0-8.11-13.11s-5,2.81-6.3,5.68,3.14,7.1-1.52,8.79c0,0-7.18-10.6-13.75-12.48,0,0,.78-7.6,3.21-9.06s7.8-2.18,10.35-2.06,4.16.94,1.2,3.28-2.47,2.93,4.32,2,23.33-.15,28.48.36,5.83-.27-.06-4.53S518.15,229.23,506.23,229s-28.91,6.11-39,15.34c0,0,8.41-.81,13.08,0s1.87,2.5-1.36,3.15A45.11,45.11,0,0,0,467.08,252s-1.36-5.12-4.86-3.63-12.76,7.79-16.55,8.27-17.68,3-22.19,3.16-11.6,1.73-13.42,2-5.16-2.24-6.6-2-25.1-.1-26.69,0a26,26,0,0,1-5.81.4s-53.49-4-88.17-7.2-70.23-6.74-72.09-6.71-2.72-2-5.4-2.06-39-3.48-59.25-5.71S93,229.84,93,229.84l-3.11,2.23-2.06-2.87s-8.14-1.63-9.61-1.66a2.84,2.84,0,0,0-2.15.74s-22.51-7.19-30.54-9-11.79-2.78-11.79-2.78c17.51,28.42,31.72,33.75,54,38.58s34.51,7.94,77.88,12.05,93.17,9.2,147.57,13.81,107,7.91,108.64,8.31,2.33-1.31,1.19-3.39a6.78,6.78,0,0,1,6.36-2c4,.83,9.47,3.28,10,5.61s-2.29,3.17-4.17,2.27-3.52.56-1.71,2.67,9.24,10.13,24.09,14.55,25.15,5.31,31.87,1.43c0,0-18.32-1.87-24.17-10s-5.25-12.77-2.43-14.3,11.34-.08,9.36,8.38l6.05,2a3,3,0,0,0,2.76,3c2.88.47,3.44-2.69,3.44-2.69s5.74,0,8.13-1.7l7.72,2.36S505.49,305.85,512,308s7.8,2.83,10.81,1.68,2.29-1.57-.58-3.65-7.66-6.11-8.62-12.09.26-3.38,2.28,0,2,5.15,5.17,8.11c0,0,3.71-.19,4.85-7.18s1.07-8.32,1.07-8.32l5.18-.16s.24,2.31,1.57,2.28c1.7,0,1.88-2.43,1.88-2.43l7.78.51a2.09,2.09,0,0,0,1.69,2c1.64.27,2-2.38,2-2.38l83.51-2.73,2.18,1.11,22.19-.62s8.17-7.32,17-10.48C672,273.66,670.29,271.53,665,270.24ZM452.54,277.5c-2.15,1.31-6.81,1.76-8.93-2.07l6.31-3.3S454.68,276.19,452.54,277.5ZM479,278.71c.94,2.84,3,4.8,3.56,5.8A12.79,12.79,0,0,1,473.2,275h0a2.33,2.33,0,0,1-.07-.25c0-.13-.06-.26-.08-.39a5.16,5.16,0,1,1,5.92,4.37Zm3.89-14.35a6.06,6.06,0,0,0-6.58-.95,12.74,12.74,0,0,1,13.16-3.47h0a5.19,5.19,0,1,1-6.55,4.4Zm10.57,17.85h0a5,5,0,0,1-2.16.91,5.16,5.16,0,1,1,2.86-8.7h0c2-1.89,2.91-5,2.91-8a12.53,12.53,0,0,1,1.18,3.67A12.76,12.76,0,0,1,493.45,282.21Z" transform="translate(-18.83 -20.47)"/><path d="M291.2,255.78c-2.95-.73-10.2-2.2-17.83-3.65-31.43-3-61-5.86-62.67-5.83-1.86,0-2.72-2-5.4-2.06s-39-3.48-59.25-5.71S93,229.84,93,229.84l-3.11,2.23-2.06-2.87s-8.14-1.63-9.61-1.66a2.84,2.84,0,0,0-2.15.74s-5.85-1.87-12.65-3.94c3,4.86,5.77,10.59,14.07,14.26,9.07,4,13.09,3.11,18,2.84s9.88-.11,13.79,1,6,2.08,6.91,3-.85,2.83-3.25.87-7.53-2.52-10-2.3-6.24,1.7.2,2.84,30.18,7.31,51.39,6.33,40.62-3.91,55.32-3.76,19.69-.12,31.44,1.12,24.25,3.31,27.44,5.93,1.74,2.67,6.22,3,14.35,1.26,18,.59S298,257.47,291.2,255.78Z" transform="translate(-18.83 -20.47)"/><path d="M435.17,291.81a2,2,0,0,0-2.05,0c6.21,1.86,9.84.43,7.65-3.62s-10.36-7.29-18.55-10.22-17.42-7.45-31.39-7.71a.8.8,0,0,1-.56-.26l-2-2.36a1.52,1.52,0,0,0-1.25-.52c-1.73.13-6.14.41-9.6.34a1.59,1.59,0,0,1-1.37-.86,14.29,14.29,0,0,0-5.17-5.24,16.51,16.51,0,0,0-4.85-1.54h-.1c-5.73-.43-15.83-1.2-27.69-2.14h-.07a140.39,140.39,0,0,0-18.05,1c-17.76,2.39-21.16,3.78-26.16,5.36s-6.36,2.18-13.43,2.38a52.39,52.39,0,0,1-7.89-.12c-1.86,0-2.72-.1-4.45-3.14s-5.41-6.31-16-8.63-34.52-2.61-47.42-1.8c-14.31.9-36.07,2.81-27.74,4,3.1.44,74.61,8.8,83.08,9.68s20.35,1.75,31.86.83,23.28-1.19,33.87-4,20.32-3.7,24.66-3.6,12.4.28,15.8,4.13.19,3.6,1.27,4.58,5.89.14,12.78,2.2,20.38,3.79,42,17.62a.76.76,0,0,0,1.17-.74,4.19,4.19,0,0,0-.31-1.13.76.76,0,0,1,.21-.88,6.78,6.78,0,0,1,5.92-1.53c4,.83,9.47,3.28,10,5.61S437.05,292.71,435.17,291.81Z" transform="translate(-18.83 -20.47)"/><path d="M374.9,276.2c3,.35-3.6-4.45-16.56-5.5-2.68-.21-1.93-2.15-.63-2.79s2.34-5.1-3.82-5.74-9.41-.19-15.31,2.46-13.3,3.31-21.05,4.4c-3.1.44-6.58,1.22-.37,1.73" transform="translate(-18.83 -20.47)"/><path d="M447.89,267.56c-3.63,2.86,3.86.32,9.76-3.54s7.7-8.37,11.43-10.64A37,37,0,0,1,480,248.92c3.35-.74,6.44-5.69.89-4.41h0c3.82.88,1.15,2.41-1.94,3A45.11,45.11,0,0,0,467.08,252a8.17,8.17,0,0,0-1.34-2.66C463.23,256.47,451.52,264.7,447.89,267.56Z" transform="translate(-18.83 -20.47)"/><path d="M395.93,259.87c5,7.27,14.35,15.57,30,13.31a45.36,45.36,0,0,0,9.5,4.4c6,2.06,8.45,1.09,7.54-3.54a23.48,23.48,0,0,0-3.42-8.15s5.63,5.12,10.52,1.89,14.2-11.57,15.83-18.21a2.89,2.89,0,0,0-3.71-1.22c-1.84.79-5.28,2.91-8.68,4.81h0c-2.19,5-3.17,10.52-19.94,8.15a20.31,20.31,0,0,1,3,6.27c1.23,4,.35,11.74-14.92-7.67-1.55.15-3.25.39-4.88.66l4.05,6.24s-11.4,2.31-16.41-6.88a2.47,2.47,0,0,0-1-.14C403,259.87,399.87,259.88,395.93,259.87Z" transform="translate(-18.83 -20.47)"/><path d="M534.59,271.55c-1-2.38-3.07-2.63-4-2.09a1.12,1.12,0,0,1-1.57-.34c-1.16-1.9-3.41-5.52-3.85-6s.11-1.55.44-2.12a1.14,1.14,0,0,0,.13-.51c-.22-.45-.95-1.93-2.1-3.95h0c0,.52-.1,5.89-.12,7.42a1.06,1.06,0,0,0,.24.72c.77,1,3.14,4,3.67,6,.63,2.37.8,5-3.57.65s-4.7-4.19-5.08-7.71-2.07-2.25-2.53-1.4-.89,2.61-4.27-2h0a3,3,0,0,1-2.07,1.83,56,56,0,0,0-5.39-6.58,1.08,1.08,0,0,0,0,1.23c5,7.76,7.45,12.77,7.54,20.34.1,8.6-.63,16.94,2.38,19.94h0a14.43,14.43,0,0,1-.88-3.08c-.54-3.37-.39-4,.2-3.33-.32-1.56-.37-2.79.36-2.85,2.35-.21,5.91,2.29,5.86-3.33s-.82-6.7-2-8.48-1.73-3.82,2-1.68,6.3,2.57,6.55,6.8c.18,3,.3,4.51.36,5.14a1.21,1.21,0,0,0,.11.37l5.11-.16-.41-.12a1.19,1.19,0,0,0,0-.53L530.49,281a1.7,1.7,0,0,1,.7-1.81C533,277.92,536.69,276.46,534.59,271.55Z" transform="translate(-18.83 -20.47)"/><path d="M546.65,271.67c-1.19-3.2-4.36-2.05-5.57-1.71a1.29,1.29,0,0,1-1.43-.57l-4.27-6.69-6.76-.58a37.25,37.25,0,0,0,2.41,4.49s4.17-.46,6.22,3c1.91,3.26,2,7.61-2,10a1.23,1.23,0,0,0-.54,1.46,30.57,30.57,0,0,1,1.32,5.07l7.28.6-.77-6.27a2,2,0,0,1,.8-1.78C545,277.57,547.88,275,546.65,271.67Z" transform="translate(-18.83 -20.47)"/><path d="M634.17,269c-5.42-5.5-16.77-1.27-18.09-.71s-3.19,2.64-9.15,1.26a60.46,60.46,0,0,0-9.31-1.55c-1.08-.15-2.42-1.54-3.55-2.85a7.17,7.17,0,0,1-2.65.61l-52-2.61,2.55,3.91a6.21,6.21,0,0,1,7.15,4c1.71,4-1.36,6.78-2.76,7.94a1.58,1.58,0,0,0-.55,1.55l1.26,5.83,83.51-2.73a79.41,79.41,0,0,0,7.16-6.46C639.59,275,639.58,274.52,634.17,269Zm-58.73,6.43-4.17,2.88c-.84.59-1.27.78-1.87-.05l-2.79-4.18c-.6-.83-.85-1.57,0-2.17l4.59-2.88a1.39,1.39,0,0,1,2.18.3l2.5,4.06C576.47,274.24,576.27,274.85,575.44,275.45Zm9,1.1a2.73,2.73,0,1,1,.89-3.75A2.73,2.73,0,0,1,584.46,276.55Z" transform="translate(-18.83 -20.47)"/></g></svg>